PathFileType	4	(X/Y/Z)	HSS_squat3.trc
DataRate	CameraRate	NumFrames	NumMarkers	Units	OrigDataRate	OrigDataStartFrame	OrigNumFrames
120.0	120.0	8	44	mm	120.0	608	972
Frame#	Time		R.Shoulder		Offset		L.Shoulder		R.Elbow		R.Wrist.Radial		R.Wrist		R.Hand		L.Elbow		L.Wrist.Radial		L.Wrist		L.Hand		R.Hip		V.Sacral		L.PSIS		L.Hip		R.Thigh.Upper		R.Thigh.Front		R.Thigh.Rear		X.Shell.Lower.Thigh.Right		R.Knee.Lateral		R.Shank.Upper		R.Shank.Front		R.Shank.Rear		X.Shell.Lower.Shank.Right		R.Ankle.Lateral		R.Heel		R.Toe		L.Thigh.Upper		L.Thigh.Front		L.Thigh.Rear		X.Shell.Lower.Thigh.Left		L.Knee.Lateral		L.Shank.Upper		L.Shank.Front		L.Shank.Rear		X.Shell.Lower.Shank.Left		L.Ankle.Lateral		L.Heel		L.Toe		R.Troc		L.Troc		R.PSIS		L.ASIS		R.ASIS
			X1	Y1	Z1	X2	Y2	Z2	X3	Y3	Z3	X4	Y4	Z4	X5	Y5	Z5	X6	Y6	Z6	X7	Y7	Z7	X8	Y8	Z8	X9	Y9	Z9	X10	Y10	Z10	X11	Y11	Z11	X12	Y12	Z12	X13	Y13	Z13	X14	Y14	Z14	X15	Y15	Z15	X16	Y16	Z16	X17	Y17	Z17	X18	Y18	Z18	X19	Y19	Z19	X20	Y20	Z20	X21	Y21	Z21	X22	Y22	Z22	X23	Y23	Z23	X24	Y24	Z24	X25	Y25	Z25	X26	Y26	Z26	X27	Y27	Z27	X28	Y28	Z28	X29	Y29	Z29	X30	Y30	Z30	X31	Y31	Z31	X32	Y32	Z32	X33	Y33	Z33	X34	Y34	Z34	X35	Y35	Z35	X36	Y36	Z36	X37	Y37	Z37	X38	Y38	Z38	X39	Y39	Z39	X40	Y40	Z40	X41	Y41	Z41	X42	Y42	Z42	X43	Y43	Z43	X44	Y44	Z44

608	5.05833	127.42751	1005.19629	-246.84250	-157.85158	956.00757	-113.65368	-181.76505	1012.88245	-265.62643	271.58786	837.11664	-508.87247	69.81099	906.40875	-677.87903	122.59824	931.03235	-719.71069	42.56836	945.26361	-753.83423	-330.76169	862.46613	-538.28485	-114.05531	888.40741	-686.85211	-154.90558	933.56763	-725.12567	-69.33158	933.60059	-743.38544	108.80321	636.55627	-4.26576	-45.00631	659.06555	126.74364	-82.17564	665.40363	116.15799	-190.47112	629.61066	-7.60259	197.88365	548.65594	-129.77110	188.74545	570.83527	-176.85577	220.18613	520.41785	-158.24475	209.10890	537.46869	-200.30440	220.43855	440.01862	-283.79407	263.11487	321.25101	-251.05101	239.31775	270.26462	-256.99750	247.69756	303.90601	-206.64934	237.99834	257.52072	-209.52406	185.86244	71.14424	-93.03048	133.94310	35.40707	-45.09316	203.26704	33.64611	-236.21353	-235.39204	543.82098	-155.86263	-218.84660	551.00366	-210.63147	-256.02176	508.64288	-182.69295	-247.38174	525.92883	-223.39099	-233.64281	424.64252	-312.46179	-277.66577	276.53244	-223.72174	-261.69339	241.68102	-236.09212	-265.68930	257.15045	-176.84634	-268.79132	218.98604	-182.79031	-232.13280	73.94404	-109.62971	-185.55510	39.25179	-46.12437	-241.80544	32.52904	-242.23276	143.60277	601.85645	30.12085	-229.09280	585.86304	25.17993	-3.43276	667.08063	119.59302	-143.71469	588.80212	-44.43998	76.22939	594.09033	-39.64643
609	5.06667	127.23357	1001.38477	-247.43338	-158.16008	952.26971	-114.48540	-181.94916	1008.85089	-266.67834	271.28409	833.34595	-509.40222	69.63913	901.03821	-678.52289	122.50071	927.17590	-720.51697	42.50735	941.24854	-754.53467	-330.62186	858.28522	-539.16669	-113.43974	884.31927	-687.58142	-155.06726	929.53143	-725.94098	-69.39026	929.51837	-744.16882	108.58017	634.12842	-3.50998	-45.29765	655.93243	127.27945	-82.38826	662.16907	116.82687	-190.80524	626.56689	-6.72516	197.76076	547.38239	-129.54652	188.40579	569.73602	-176.17491	220.07616	519.45349	-158.03734	208.91237	536.55603	-199.82021	220.36789	439.77594	-283.92789	263.08853	321.11954	-251.28142	239.23143	270.11450	-257.19162	247.64316	303.83334	-206.81805	237.96277	257.46796	-209.61617	185.81235	71.15324	-93.04961	133.91833	35.42331	-45.07997	203.26439	33.65570	-236.22714	-235.53178	542.28552	-155.23546	-219.15625	549.85913	-209.88353	-256.08768	507.28229	-182.26839	-247.57753	524.83441	-222.97777	-233.97571	424.27789	-312.61676	-277.71594	276.42609	-223.89169	-261.77151	241.54642	-236.24545	-265.72433	257.05011	-177.05896	-268.81046	218.88806	-182.91566	-232.14799	73.89799	-109.61657	-185.44438	39.20823	-46.19453	-241.78247	32.54620	-242.19243	143.43941	599.20209	30.72460	-229.25540	582.92102	26.00033	-3.74723	663.85114	120.52370	-145.38782	587.01001	-44.51920	75.97697	591.58282	-38.90336
610	5.07500	127.06330	997.55914	-247.95174	-158.46378	948.62592	-115.19765	-181.98660	1004.82214	-267.45990	271.05484	829.72546	-509.77365	69.36080	894.99011	-679.15686	122.45137	923.27966	-721.18286	42.38713	937.34161	-755.33398	-330.55087	854.09540	-539.86865	-113.41115	880.16406	-688.58173	-154.95810	925.35150	-726.90991	-69.36521	925.51367	-745.02570	108.26386	631.57251	-2.50571	-45.39513	652.68762	128.04601	-82.71409	659.10083	117.85177	-191.08823	623.54785	-5.79049	197.64819	545.49323	-128.85063	188.10385	568.68774	-175.50386	219.88318	518.34052	-157.81464	208.70183	535.84479	-199.39548	220.32130	439.47021	-284.07605	263.05960	321.00024	-251.58061	239.12314	270.00046	-257.42487	247.62897	303.74896	-206.96849	237.93188	257.40228	-209.69810	185.79549	71.15541	-93.10620	133.90355	35.42852	-45.12120	203.24677	33.64536	-236.24597	-235.74182	540.73511	-154.69904	-219.23070	548.67242	-209.42183	-256.29077	505.94647	-181.81628	-247.74132	523.82013	-222.42050	-234.26656	424.04633	-312.74323	-277.73376	276.31573	-224.10176	-261.77200	241.44760	-236.38261	-265.77728	256.99588	-177.26286	-268.81979	218.78479	-183.06810	-232.10594	73.91096	-109.60934	-185.39087	39.24540	-46.20588	-241.76012	32.55269	-242.21341	143.17621	596.77692	31.28343	-229.37706	580.04736	26.81349	-4.15576	660.79510	121.27777	-146.18764	584.51343	-43.97626	76.07246	589.33984	-38.65529
611	5.08333	126.78352	993.78735	-248.49626	-158.67429	944.96008	-115.79225	-182.04541	1000.75061	-268.33072	270.83307	825.91565	-510.28220	69.03698	888.90979	-679.81079	122.39536	919.28552	-721.80579	42.37192	933.43518	-756.13904	-330.49921	849.90082	-540.73792	-113.73628	876.39215	-689.20239	-155.01480	921.20972	-727.82288	-69.29026	921.41187	-745.83929	108.07416	628.90991	-1.89507	-45.51136	649.49139	128.75459	-82.79808	655.96722	118.43690	-191.80490	621.04779	-4.64067	197.25294	544.26221	-128.35483	187.66295	567.64777	-174.90695	219.68597	517.31305	-157.47136	208.37093	534.87683	-198.93864	220.31200	439.18643	-284.18460	263.02466	320.87723	-251.80376	239.04602	269.87195	-257.56058	247.62314	303.67273	-207.12898	237.86478	257.31845	-209.83887	185.75713	71.15609	-93.12019	133.89590	35.42995	-45.11869	203.24501	33.65512	-236.23459	-235.90680	539.33112	-154.08942	-219.02773	547.77386	-208.56972	-256.42548	504.66925	-181.42670	-247.89073	522.82593	-221.99539	-234.56454	423.87729	-312.88965	-277.73050	276.20413	-224.33406	-261.75748	241.33560	-236.53813	-265.83005	256.93143	-177.47574	-268.81378	218.66745	-183.20946	-231.97034	73.93591	-109.74354	-185.38611	39.28494	-46.15898	-241.72751	32.54494	-242.22189	142.94794	594.08698	32.15262	-229.59349	577.20959	27.73050	-4.54811	657.68439	122.29052	-146.44136	582.09711	-42.69888	76.10643	586.87909	-38.55204
612	5.09167	126.54677	989.94904	-249.07616	-159.13800	941.27905	-116.69970	-182.21591	996.60242	-269.16348	270.67719	822.26178	-510.79556	68.91838	885.06079	-680.56506	122.35157	915.44366	-722.34290	42.42786	929.50940	-756.84094	-330.43372	845.86328	-541.56323	-112.54926	872.38794	-690.11157	-154.95566	917.10114	-728.60413	-69.32661	917.46509	-746.80994	107.96571	626.26996	-1.12481	-45.79686	646.24371	129.55804	-82.94608	652.85822	119.32988	-192.02489	618.33160	-3.67876	196.92940	543.07355	-127.80216	187.29507	566.56915	-174.29094	219.46208	516.33722	-157.21513	208.03831	534.04004	-198.63527	220.30835	438.96033	-284.27448	262.99503	320.74863	-252.00748	238.99641	269.79605	-257.69910	247.59833	303.56900	-207.27989	237.81625	257.24963	-209.94205	185.71982	71.15762	-93.10597	133.87747	35.43450	-45.10931	203.23537	33.67069	-236.22595	-236.01074	537.95349	-153.48907	-219.13029	546.80975	-207.97348	-256.49014	503.47336	-181.16167	-247.94258	521.85443	-221.51201	-233.85680	423.91040	-313.23987	-277.70639	276.11636	-224.48238	-261.69199	241.26108	-236.67540	-265.79385	256.84042	-177.67172	-268.77585	218.59354	-183.31531	-232.01431	73.90969	-109.67869	-185.31020	39.23877	-46.23090	-241.69431	32.56364	-242.23174	142.79034	591.59137	32.82364	-229.83759	574.44147	28.65838	-4.64640	654.49261	123.00828	-147.23695	579.73492	-42.40396	75.88854	584.41693	-37.78616
613	5.10000	126.31633	986.26227	-249.78693	-159.34903	937.66956	-117.36555	-182.42291	992.69550	-270.04178	270.52805	818.49939	-511.28827	69.12208	881.01276	-681.03217	122.36594	911.59216	-723.18201	42.43336	925.53125	-757.49176	-330.27823	841.74695	-542.41632	-113.06558	868.22650	-690.79236	-154.96249	913.12799	-729.51935	-69.39112	913.41681	-747.54474	107.81187	623.45752	-0.32180	-45.85712	643.16638	130.18233	-82.91061	649.70959	120.21756	-192.20609	615.73883	-2.68489	196.66969	541.80359	-127.32455	186.93936	565.57367	-173.54262	219.30389	515.26477	-156.65909	207.80130	533.24384	-197.98326	220.30652	438.78705	-284.29794	262.95972	320.64819	-252.15637	238.95030	269.73499	-257.79959	247.57065	303.47711	-207.38524	237.74835	257.15570	-210.04605	185.70184	71.16418	-93.10391	133.88632	35.41676	-45.12934	203.22498	33.66571	-236.18971	-236.07039	536.55902	-152.81738	-219.18578	545.86713	-207.21747	-256.60571	502.27631	-180.76819	-247.96315	520.91113	-221.03391	-233.85446	423.69757	-313.36850	-277.65845	276.05328	-224.61707	-261.60999	241.20465	-236.79857	-265.74115	256.82065	-177.81158	-268.70898	218.54227	-183.42767	-231.90071	73.95532	-109.76289	-185.32889	39.31345	-46.13931	-241.67307	32.58410	-242.20325	142.51463	588.89355	33.58277	-229.92117	571.80200	29.52823	-4.70595	651.41272	123.80358	-147.54173	577.23450	-41.69114	76.19096	582.33453	-37.45744
614	5.10833	126.01118	982.39307	-250.45483	-159.61650	934.00085	-117.92439	-182.49194	988.65253	-270.92999	270.43875	814.76746	-511.79669	69.27995	876.75885	-681.60663	122.33700	907.74634	-723.75183	42.39739	921.73926	-758.27649	-330.18564	837.64807	-543.11182	-113.45389	864.25336	-691.65631	-154.96155	909.00574	-730.44867	-69.30736	909.47070	-748.32434	107.71580	620.58868	0.32367	-45.88156	640.01019	130.80699	-83.05617	646.74341	120.87275	-192.27094	613.19672	-1.67276	196.28798	540.52643	-126.71948	186.59335	564.49451	-172.78214	219.09154	514.19165	-156.23666	207.65967	532.73846	-197.31693	220.30009	438.71542	-284.28418	262.92093	320.60571	-252.20724	238.89418	269.68335	-257.88657	247.48889	303.42963	-207.45271	237.67493	257.09592	-210.11713	185.69142	71.16869	-93.09570	133.86517	35.43254	-45.08101	203.24443	33.69257	-236.16699	-236.04544	535.21869	-152.17026	-219.04773	544.74249	-206.56306	-256.66980	501.17291	-180.42123	-247.64505	520.01343	-220.20663	-233.81311	423.49969	-313.51593	-277.60138	275.98898	-224.73552	-261.51794	241.13165	-236.90131	-265.65643	256.74615	-178.02737	-268.62531	218.47173	-183.53326	-231.94470	73.93168	-109.69730	-185.27873	39.24551	-46.23722	-241.62497	32.57230	-242.23843	142.22171	586.13263	34.17270	-230.11337	569.25330	30.28668	-4.81470	648.25934	124.37952	-147.95270	574.60394	-41.09845	78.65970	584.56708	-37.03808
615	5.11667	125.77635	978.68958	-251.13382	-159.95580	930.34802	-118.65871	-182.57735	984.65735	-271.47400	270.24286	811.07275	-512.26770	69.28906	873.11761	-682.41217	122.35575	903.83441	-724.45746	42.41866	917.81372	-759.08240	-330.08920	833.62329	-543.92181	-112.49793	860.39111	-692.30035	-154.95004	905.00745	-731.15808	-69.30748	905.54181	-749.23169	107.77941	617.68317	0.95854	-45.92529	636.82971	131.39436	-82.85055	643.71338	121.53752	-192.30772	610.52008	-0.84355	195.89079	539.12805	-126.01105	186.39610	563.35309	-171.84586	218.93237	513.00623	-155.62215	207.49028	531.84845	-196.77924	220.30011	438.58960	-284.13376	262.87994	320.56061	-252.23044	238.85240	269.66251	-257.94702	247.41826	303.37308	-207.49622	237.63335	257.05807	-210.16957	185.65401	71.18513	-93.06009	133.85275	35.44078	-45.04722	203.21704	33.67649	-236.14647	-236.08997	533.90692	-151.63713	-218.99013	543.73615	-205.85495	-256.62857	500.04010	-180.12231	-247.58072	519.01404	-219.58904	-233.76486	423.30069	-313.58804	-277.53046	275.93015	-224.84578	-261.39240	241.02478	-236.99077	-265.57434	256.67682	-178.16687	-268.51376	218.39633	-183.65747	-231.89302	73.91475	-109.72568	-185.27223	39.25058	-46.21452	-241.58908	32.57733	-242.21420	141.88205	583.36383	34.98438	-230.19322	566.68683	31.07834	-4.86034	645.15833	125.04326	-148.15953	571.81567	-40.39415	78.62192	581.76941	-35.97687
